<svg xmlns="http://www.w3.org/2000/svg" viewBox="0 0 175.27 239.19"><defs><style>.cls-1{fill:#c3c;}.cls-2{fill:#f3c;}</style></defs><g id="Camada_2" data-name="Camada 2"><g id="Camada_1-2" data-name="Camada 1"><path class="cls-1" d="M162.08,46.47,106.4,6.09a31.94,31.94,0,0,0-37.52,0L13.19,46.47A32,32,0,0,0,0,72.34v94.51a32,32,0,0,0,13.19,25.87L68.88,233.1a31.94,31.94,0,0,0,37.52,0l55.68-40.38a32,32,0,0,0,13.19-25.87V72.34A32,32,0,0,0,162.08,46.47Zm-34.65,94.58a14.53,14.53,0,0,1-6,11.75L96.15,171.14a14.52,14.52,0,0,1-17,0L53.83,152.8a14.53,14.53,0,0,1-6-11.75V98.14a14.53,14.53,0,0,1,6-11.75L79.12,68.05a14.52,14.52,0,0,1,17,0l25.29,18.34a14.53,14.53,0,0,1,6,11.75Z"/><path class="cls-2" d="M162.08,46.47,127.78,21.6a31.94,31.94,0,0,0-32.31,3L39.78,65A32,32,0,0,0,26.59,90.89v94.52a31.93,31.93,0,0,0,13.19,25.86l34.3,24.88a31.94,31.94,0,0,0,32.32-3.05l55.68-40.38a32,32,0,0,0,13.19-25.87V72.34A32,32,0,0,0,162.08,46.47Zm-34.65,94.58a14.53,14.53,0,0,1-6,11.75L96.15,171.14a14.52,14.52,0,0,1-17,0L53.83,152.8a14.53,14.53,0,0,1-6-11.75V98.14a14.53,14.53,0,0,1,6-11.75L79.12,68.05a14.52,14.52,0,0,1,17,0l25.29,18.34a14.53,14.53,0,0,1,6,11.75Z"/></g></g></svg>
