<svg xmlns="http://www.w3.org/2000/svg" viewBox="0 0 103.82 38.3"><defs><style>.cls-1{fill:#f4f4f4;}</style></defs><g id="Camada_2" data-name="Camada 2"><g id="Meni_logo" data-name="Meni logo"><path class="cls-1" d="M0,17.67a7.49,7.49,0,0,1,1.23-4.56,9,9,0,0,1,2.68-2.49A9.71,9.71,0,0,1,7.83,9.39h7.82v6.77H10.4a3.72,3.72,0,0,0-1.82.39,4.11,4.11,0,0,0-1.09.84,3.09,3.09,0,0,0-.61,1.23V37.74H0Z"/><path class="cls-1" d="M31.31,38.3l-1.2-.06a10.88,10.88,0,0,1-2.44-.47,14.16,14.16,0,0,1-3-1.32,10.32,10.32,0,0,1-2.91-2.57,13.74,13.74,0,0,1-2.2-4.22,19.64,19.64,0,0,1-.87-6.29v-14h6.82v14a14.64,14.64,0,0,0,.22,2.52,7,7,0,0,0,.84,2.34A5,5,0,0,0,28.35,30a5.47,5.47,0,0,0,3,.7,5.47,5.47,0,0,0,3-.7A4.94,4.94,0,0,0,36,28.23a7,7,0,0,0,.84-2.34,14.67,14.67,0,0,0,.23-2.52v-14h6.82v14A19.64,19.64,0,0,1,43,29.66a13.75,13.75,0,0,1-2.21,4.22,10.16,10.16,0,0,1-2.9,2.57,14.45,14.45,0,0,1-3,1.32,10.7,10.7,0,0,1-2.43.47Z"/><path class="cls-1" d="M52.94,15a9.35,9.35,0,0,1,2.41-3.6A11.85,11.85,0,0,1,58.2,9.5a11.84,11.84,0,0,1,3.35-.83,12.81,12.81,0,0,1,6.15,1.67A11.26,11.26,0,0,1,70,12.08a11.12,11.12,0,0,1,2,2.65,15.71,15.71,0,0,1,1.39,3.78,21.31,21.31,0,0,1,.53,5.08,19.75,19.75,0,0,1-.58,5.09,15.43,15.43,0,0,1-1.51,3.75A10.48,10.48,0,0,1,69.63,35a14.11,14.11,0,0,1-2.43,1.7,14.6,14.6,0,0,1-6.6,1.57,14.23,14.23,0,0,1-6.54-1.57,13.2,13.2,0,0,1-2.4-1.7,10.66,10.66,0,0,1-2.1-2.63,15,15,0,0,1-1.48-3.77,20.79,20.79,0,0,1-.56-5.09V2.25A2.25,2.25,0,0,1,49.77,0h2.16a2.24,2.24,0,0,1,2.24,2.25V13.36ZM60.6,31.92a5.91,5.91,0,0,0,3.33-.84A5.67,5.67,0,0,0,65.86,29a8.39,8.39,0,0,0,.89-2.71A17.77,17.77,0,0,0,67,23.59a17.64,17.64,0,0,0-.23-2.68,8.39,8.39,0,0,0-.89-2.71,5.78,5.78,0,0,0-1.93-2.1,7,7,0,0,0-6.65,0,6,6,0,0,0-2,2.1,8,8,0,0,0-.92,2.71,17.64,17.64,0,0,0-.23,2.68,17.77,17.77,0,0,0,.23,2.69A8,8,0,0,0,55.32,29a5.6,5.6,0,0,0,5.28,2.93Z"/><path class="cls-1" d="M103.54,20c.08.56.14,1.14.2,1.73s.08,1.23.08,1.9h0a1,1,0,0,1-1,1H84.25c.08.63.17,1.28.28,1.93a9.19,9.19,0,0,0,.56,1.93A7,7,0,0,0,87,31a6.28,6.28,0,0,0,7.16,0,7.17,7.17,0,0,0,1.7-2.14.75.75,0,0,1,.67-.43h5.8a.77.77,0,0,1,.74,1,12.12,12.12,0,0,1-1,2.42,12.89,12.89,0,0,1-1.79,2.51,9.82,9.82,0,0,1-2.1,1.76,13.32,13.32,0,0,1-7.6,2.16,14.66,14.66,0,0,1-6.65-1.57A14.11,14.11,0,0,1,81.49,35a10.27,10.27,0,0,1-2.13-2.6,14.67,14.67,0,0,1-1.48-3.75,20.73,20.73,0,0,1-.56-5.09,20.71,20.71,0,0,1,.56-5.08,14.9,14.9,0,0,1,1.48-3.78,10.37,10.37,0,0,1,2.13-2.65,13.38,13.38,0,0,1,2.43-1.74,14.7,14.7,0,0,1,6.65-1.67A15.62,15.62,0,0,1,96.33,10a14.06,14.06,0,0,1,2.26,1.32,10.85,10.85,0,0,1,2.13,2,13.08,13.08,0,0,1,1.73,2.85A14.51,14.51,0,0,1,103.54,20Zm-7,0a14.7,14.7,0,0,0-.7-1.79,5.51,5.51,0,0,0-1.15-1.62,5.19,5.19,0,0,0-1.73-1.15,6.78,6.78,0,0,0-4.7,0,5.19,5.19,0,0,0-1.73,1.15,6,6,0,0,0-1.18,1.62A9.31,9.31,0,0,0,84.64,20Z"/></g></g></svg>
