<svg xmlns="http://www.w3.org/2000/svg" xmlns:xlink="http://www.w3.org/1999/xlink" viewBox="0 0 175.27 310.55"><defs><style>.cls-1{fill:#9b3aee;}.cls-2{fill:url(#Gradiente_sem_nome_66);}.cls-3{fill:#fff;opacity:0.05;}.cls-4{fill:#f4f4f4;}</style><linearGradient id="Gradiente_sem_nome_66" x1="26.59" y1="128.87" x2="175.27" y2="128.87" gradientUnits="userSpaceOnUse"><stop offset="0" stop-color="#b64dff"/><stop offset="0.1" stop-color="#b24afc"/><stop offset="0.59" stop-color="#a13ef2"/><stop offset="0.97" stop-color="#9b3aee"/></linearGradient></defs><g id="Camada_2" data-name="Camada 2"><g id="Camada_1-2" data-name="Camada 1"><path class="cls-1" d="M162.08,46.47,106.4,6.09a31.94,31.94,0,0,0-37.52,0L13.19,46.47A32,32,0,0,0,0,72.34v94.51a32,32,0,0,0,13.19,25.87L68.88,233.1a31.94,31.94,0,0,0,37.52,0l55.68-40.38a32,32,0,0,0,13.19-25.87V72.34A32,32,0,0,0,162.08,46.47Zm-34.65,94.58a14.53,14.53,0,0,1-6,11.75L96.15,171.14a14.52,14.52,0,0,1-17,0L53.83,152.8a14.53,14.53,0,0,1-6-11.75V98.14a14.53,14.53,0,0,1,6-11.75L79.12,68.05a14.52,14.52,0,0,1,17,0l25.29,18.34a14.53,14.53,0,0,1,6,11.75Z"/><path class="cls-2" d="M162.08,46.47,127.78,21.6a31.94,31.94,0,0,0-32.31,3L39.78,65A32,32,0,0,0,26.59,90.89v94.52a31.93,31.93,0,0,0,13.19,25.86l34.3,24.88a31.94,31.94,0,0,0,32.32-3.05l55.68-40.38a32,32,0,0,0,13.19-25.87V72.34A32,32,0,0,0,162.08,46.47Zm-34.65,94.58a14.53,14.53,0,0,1-6,11.75L96.15,171.14a14.52,14.52,0,0,1-17,0L53.83,152.8a14.53,14.53,0,0,1-6-11.75V98.14a14.53,14.53,0,0,1,6-11.75L79.12,68.05a14.52,14.52,0,0,1,17,0l25.29,18.34a14.53,14.53,0,0,1,6,11.75Z"/><path class="cls-3" d="M148.24,92.71a32,32,0,0,0-25.59-5.33,14.52,14.52,0,0,1,4.78,10.76v42.91a14.53,14.53,0,0,1-6,11.75L96.15,171.14a14.52,14.52,0,0,1-17,0L53.83,152.8a14.53,14.53,0,0,1-6-11.75v-.7a32,32,0,0,0-6,18.61V213.5l27,19.6a31.94,31.94,0,0,0,37.52,0l55.68-40.38a32,32,0,0,0,13.19-25.87V112.32Z"/><g id="Camada_2-2" data-name="Camada 2"><g id="Meni_logo" data-name="Meni logo"><path class="cls-4" d="M3.61,277.16a12.14,12.14,0,0,1,2-7.38,14.64,14.64,0,0,1,4.33-4,16,16,0,0,1,6.35-2H29v11h-8.5a6.16,6.16,0,0,0-2.95.63,6.64,6.64,0,0,0-1.76,1.36,5.25,5.25,0,0,0-1,2v31H3.61Z"/><path class="cls-4" d="M54.3,310.55l-1.94-.09a17.7,17.7,0,0,1-4-.77,22.62,22.62,0,0,1-4.86-2.13,16.75,16.75,0,0,1-4.71-4.16,22.17,22.17,0,0,1-3.56-6.83,31.7,31.7,0,0,1-1.41-10.19V263.72h11v22.66a23.18,23.18,0,0,0,.36,4.08,11.11,11.11,0,0,0,1.36,3.79,8.08,8.08,0,0,0,2.88,2.87,8.83,8.83,0,0,0,4.85,1.13,8.86,8.86,0,0,0,4.86-1.13,8.08,8.08,0,0,0,2.67-2.87,11.11,11.11,0,0,0,1.36-3.79,23.19,23.19,0,0,0,.37-4.08V263.72h11v22.66a31.73,31.73,0,0,1-1.44,10.19,22.19,22.19,0,0,1-3.57,6.83,16.55,16.55,0,0,1-4.7,4.16,23.13,23.13,0,0,1-4.86,2.13,16.89,16.89,0,0,1-3.93.77Z"/><path class="cls-4" d="M89.31,272.83A15.16,15.16,0,0,1,93.22,267a16.13,16.13,0,0,1,10-4.42,20.82,20.82,0,0,1,10,2.7,18.23,18.23,0,0,1,3.72,2.82,17.88,17.88,0,0,1,3.24,4.29,25.55,25.55,0,0,1,2.25,6.12,34.9,34.9,0,0,1,.86,8.22,32.17,32.17,0,0,1-.94,8.24,25.16,25.16,0,0,1-2.45,6.07,16.68,16.68,0,0,1-3.56,4.16A22.73,22.73,0,0,1,112.4,308a23.47,23.47,0,0,1-10.69,2.54A22.89,22.89,0,0,1,91.13,308a21.2,21.2,0,0,1-3.89-2.75,17.29,17.29,0,0,1-3.4-4.26,24.26,24.26,0,0,1-2.39-6.1,33.64,33.64,0,0,1-.91-8.24V252.2a3.64,3.64,0,0,1,3.64-3.65h3.5a3.64,3.64,0,0,1,3.63,3.63v18Zm12.4,27.39a9.51,9.51,0,0,0,5.39-1.35,9.21,9.21,0,0,0,3.13-3.37,13.65,13.65,0,0,0,1.44-4.39,24.83,24.83,0,0,0,0-8.71,13.28,13.28,0,0,0-1.44-4.38,9.27,9.27,0,0,0-3.12-3.4,11.3,11.3,0,0,0-10.77,0,9.68,9.68,0,0,0-3.24,3.4,12.83,12.83,0,0,0-1.48,4.38,25,25,0,0,0,0,8.69,12.85,12.85,0,0,0,1.52,4.41,9.06,9.06,0,0,0,8.54,4.74Z"/><path class="cls-4" d="M171.23,280.93c.12.91.22,1.84.32,2.8a29.92,29.92,0,0,1,.13,3.08h0a1.62,1.62,0,0,1-1.62,1.61H140c.13,1,.27,2.08.45,3.13a14.69,14.69,0,0,0,.91,3.12,11.42,11.42,0,0,0,3.09,4.07,10.19,10.19,0,0,0,11.59,0,11.57,11.57,0,0,0,2.75-3.47,1.2,1.2,0,0,1,1.09-.69h9.39a1.23,1.23,0,0,1,1.25,1.23,1.21,1.21,0,0,1-.06.38,19.13,19.13,0,0,1-1.61,3.92,20.83,20.83,0,0,1-2.9,4.06,15.7,15.7,0,0,1-3.4,2.85,21.46,21.46,0,0,1-12.3,3.5A23.83,23.83,0,0,1,139.48,308a23,23,0,0,1-3.95-2.77,16.66,16.66,0,0,1-3.45-4.21,23.55,23.55,0,0,1-2.39-6.07,37.67,37.67,0,0,1,0-16.46,24,24,0,0,1,2.39-6.12,16.83,16.83,0,0,1,3.45-4.29,21.85,21.85,0,0,1,3.93-2.82,23.92,23.92,0,0,1,10.77-2.7,25.23,25.23,0,0,1,9.32,2.2,22.31,22.31,0,0,1,3.66,2.14,17.67,17.67,0,0,1,3.45,3.24,20.88,20.88,0,0,1,2.8,4.61A23.79,23.79,0,0,1,171.23,280.93Zm-11.34,0a23.21,23.21,0,0,0-1.13-2.9,9,9,0,0,0-1.86-2.62,8.37,8.37,0,0,0-2.8-1.86,11,11,0,0,0-7.61,0,8.37,8.37,0,0,0-2.8,1.86,9.64,9.64,0,0,0-1.91,2.62,15.1,15.1,0,0,0-1.15,2.9Z"/></g></g></g></g></svg>
